<?xml version="1.0" encoding="UTF-8" standalone="no"?>
<svg
   xmlns:dc="http://purl.org/dc/elements/1.1/"
   xmlns:cc="http://creativecommons.org/ns#"
   xmlns:rdf="http://www.w3.org/1999/02/22-rdf-syntax-ns#"
   xmlns:svg="http://www.w3.org/2000/svg"
   xmlns="http://www.w3.org/2000/svg"
   xmlns:sodipodi="http://sodipodi.sourceforge.net/DTD/sodipodi-0.dtd"
   xmlns:inkscape="http://www.inkscape.org/namespaces/inkscape"
   inkscape:version="1.0 (4035a4fb49, 2020-05-01)"
   inkscape:export-ydpi="614.40002"
   inkscape:export-xdpi="614.40002"
   inkscape:export-filename="/home/ryuketsu/LocalAppData/icons/Firefox.svg.png"
   sodipodi:docname="Firefox.svg"
   id="svg1188"
   version="1.1"
   viewBox="0 0 80 80">
  <metadata
     id="metadata1192">
    <rdf:RDF>
      <cc:Work
         rdf:about="">
        <dc:format>image/svg+xml</dc:format>
        <dc:type
           rdf:resource="http://purl.org/dc/dcmitype/StillImage" />
        <dc:title></dc:title>
      </cc:Work>
    </rdf:RDF>
  </metadata>
  <sodipodi:namedview
     inkscape:current-layer="svg1188"
     inkscape:window-maximized="1"
     inkscape:window-y="20"
     inkscape:window-x="0"
     inkscape:cy="40.94085"
     inkscape:cx="29.139256"
     inkscape:zoom="7.919596"
     showgrid="false"
     id="namedview1190"
     inkscape:window-height="1030"
     inkscape:window-width="1920"
     inkscape:pageshadow="2"
     inkscape:pageopacity="0"
     guidetolerance="10"
     gridtolerance="10"
     objecttolerance="10"
     borderopacity="1"
     bordercolor="#666666"
     pagecolor="#474747" />
  <defs
     id="defs1158">
    <radialGradient
       gradientUnits="userSpaceOnUse"
       gradientTransform="translate(1258.441 534.061)"
       r="90.78"
       cy="-517.676"
       cx="-1186.91"
       id="a">
      <stop
         id="stop1038"
         stop-color="#fff36e"
         offset="0" />
      <stop
         id="stop1040"
         stop-color="#fc4055"
         offset=".5" />
      <stop
         id="stop1042"
         stop-color="#e31587"
         offset="1" />
    </radialGradient>
    <radialGradient
       gradientUnits="userSpaceOnUse"
       gradientTransform="translate(1258.441 534.061)"
       r="53.726"
       cy="-513.921"
       cx="-1251.812"
       id="b">
      <stop
         id="stop1045"
         stop-color="#c60084"
         offset=".001" />
      <stop
         id="stop1047"
         stop-opacity="0"
         stop-color="#fc4055"
         offset="1" />
    </radialGradient>
    <radialGradient
       gradientUnits="userSpaceOnUse"
       gradientTransform="translate(1258.441 534.061)"
       r="106.599"
       cy="-522.842"
       cx="-1179.15"
       id="c">
      <stop
         id="stop1050"
         stop-opacity=".6"
         stop-color="#ffde67"
         offset="0" />
      <stop
         id="stop1052"
         stop-opacity=".581"
         stop-color="#ffd966"
         offset=".093" />
      <stop
         id="stop1054"
         stop-opacity=".525"
         stop-color="#ffca65"
         offset=".203" />
      <stop
         id="stop1056"
         stop-opacity=".432"
         stop-color="#feb262"
         offset=".321" />
      <stop
         id="stop1058"
         stop-opacity=".302"
         stop-color="#fe8f5e"
         offset=".446" />
      <stop
         id="stop1060"
         stop-opacity=".137"
         stop-color="#fd6459"
         offset=".573" />
      <stop
         id="stop1062"
         stop-opacity="0"
         stop-color="#fc4055"
         offset=".664" />
    </radialGradient>
    <radialGradient
       gradientUnits="userSpaceOnUse"
       gradientTransform="translate(0 -.095)"
       r="137.521"
       cy="44.499"
       cx="42.285"
       id="d">
      <stop
         id="stop1065"
         stop-color="#810220"
         offset=".153" />
      <stop
         id="stop1067"
         stop-opacity=".861"
         stop-color="#920b27"
         offset=".167" />
      <stop
         id="stop1069"
         stop-opacity=".398"
         stop-color="#cb2740"
         offset=".216" />
      <stop
         id="stop1071"
         stop-opacity=".11"
         stop-color="#ef394f"
         offset=".253" />
      <stop
         id="stop1073"
         stop-opacity="0"
         stop-color="#fc4055"
         offset=".272" />
    </radialGradient>
    <radialGradient
       gradientUnits="userSpaceOnUse"
       gradientTransform="translate(0 -.095)"
       r="137.521"
       cy="42.77"
       cx="31.878"
       id="e">
      <stop
         id="stop1076"
         stop-color="#810220"
         offset=".113" />
      <stop
         id="stop1078"
         stop-opacity=".861"
         stop-color="#920b27"
         offset=".133" />
      <stop
         id="stop1080"
         stop-opacity=".398"
         stop-color="#cb2740"
         offset=".204" />
      <stop
         id="stop1082"
         stop-opacity=".11"
         stop-color="#ef394f"
         offset=".257" />
      <stop
         id="stop1084"
         stop-opacity="0"
         stop-color="#fc4055"
         offset=".284" />
    </radialGradient>
    <linearGradient
       gradientUnits="userSpaceOnUse"
       gradientTransform="translate(1258.441 532.89)"
       y2="-484.299"
       x2="-1189.052"
       y1="-525.103"
       x1="-1212.61"
       id="f">
      <stop
         id="stop1087"
         stop-color="#ffbd4f"
         offset="0" />
      <stop
         id="stop1089"
         stop-opacity="0"
         stop-color="#ff9640"
         offset=".508" />
    </linearGradient>
    <radialGradient
       gradientUnits="userSpaceOnUse"
       gradientTransform="matrix(.959 0 0 .961 1273.896 86.468)"
       r="88.863"
       cy="-77.395"
       cx="-1255.933"
       id="g">
      <stop
         id="stop1092"
         stop-color="#ff9640"
         offset="0" />
      <stop
         id="stop1094"
         stop-color="#fc4055"
         offset=".8" />
    </radialGradient>
    <radialGradient
       gradientUnits="userSpaceOnUse"
       gradientTransform="matrix(.959 0 0 .961 1273.896 86.468)"
       r="88.863"
       cy="-77.395"
       cx="-1255.933"
       id="h">
      <stop
         id="stop1097"
         stop-color="#ffde67"
         offset=".084" />
      <stop
         id="stop1099"
         stop-opacity=".968"
         stop-color="#ffdc66"
         offset=".147" />
      <stop
         id="stop1101"
         stop-opacity=".879"
         stop-color="#ffd562"
         offset=".246" />
      <stop
         id="stop1103"
         stop-opacity=".734"
         stop-color="#ffcb5d"
         offset=".369" />
      <stop
         id="stop1105"
         stop-opacity=".533"
         stop-color="#ffbc55"
         offset=".511" />
      <stop
         id="stop1107"
         stop-opacity=".28"
         stop-color="#ffaa4b"
         offset=".667" />
      <stop
         id="stop1109"
         stop-opacity="0"
         stop-color="#ff9640"
         offset=".822" />
    </radialGradient>
    <radialGradient
       gradientUnits="userSpaceOnUse"
       gradientTransform="matrix(.247 .971 -1.011 .259 76.681 -19.851)"
       r="41.79"
       cy="38.654"
       cx="49.941"
       id="i">
      <stop
         id="stop1112"
         stop-color="#fc4055"
         offset=".363" />
      <stop
         id="stop1114"
         stop-opacity=".633"
         stop-color="#fd604d"
         offset=".443" />
      <stop
         id="stop1116"
         stop-opacity=".181"
         stop-color="#fe8644"
         offset=".545" />
      <stop
         id="stop1118"
         stop-opacity="0"
         stop-color="#ff9640"
         offset=".59" />
    </radialGradient>
    <radialGradient
       gradientUnits="userSpaceOnUse"
       gradientTransform="translate(0 -.095)"
       r="41.79"
       cy="42.193"
       cx="42.737"
       id="j">
      <stop
         id="stop1121"
         stop-opacity=".8"
         stop-color="#fc4055"
         offset=".216" />
      <stop
         id="stop1123"
         stop-opacity=".633"
         stop-color="#fd5251"
         offset=".267" />
      <stop
         id="stop1125"
         stop-opacity=".181"
         stop-color="#fe8345"
         offset=".41" />
      <stop
         id="stop1127"
         stop-opacity="0"
         stop-color="#ff9640"
         offset=".474" />
    </radialGradient>
    <radialGradient
       gradientUnits="userSpaceOnUse"
       gradientTransform="matrix(.959 0 0 .961 1273.896 86.468)"
       r="150.195"
       cy="-87.433"
       cx="-1238.198"
       id="k">
      <stop
         id="stop1130"
         stop-color="#fff36e"
         offset=".054" />
      <stop
         id="stop1132"
         stop-color="#ff9640"
         offset=".457" />
      <stop
         id="stop1134"
         stop-color="#ff9640"
         offset=".639" />
    </radialGradient>
    <linearGradient
       gradientUnits="userSpaceOnUse"
       y2="77.92"
       x2="18.155"
       y1="7.083"
       x1="59.052"
       id="l">
      <stop
         id="stop1137"
         stop-opacity=".8"
         stop-color="#fff36e"
         offset="0" />
      <stop
         id="stop1139"
         stop-opacity=".699"
         stop-color="#fff36e"
         offset=".094" />
      <stop
         id="stop1141"
         stop-opacity="0"
         stop-color="#fff36e"
         offset=".752" />
    </linearGradient>
    <linearGradient
       gradientUnits="userSpaceOnUse"
       y2="62.203"
       x2="62.3"
       y1="-.67"
       x1="40.585"
       id="m">
      <stop
         id="stop1144"
         stop-color="#b833e1"
         offset="0" />
      <stop
         id="stop1146"
         stop-color="#9059ff"
         offset=".371" />
      <stop
         id="stop1148"
         stop-color="#5b6df8"
         offset=".614" />
      <stop
         id="stop1150"
         stop-color="#0090ed"
         offset="1" />
    </linearGradient>
    <linearGradient
       gradientUnits="userSpaceOnUse"
       gradientTransform="translate(1258.441 532.89)"
       y2="-492.205"
       x2="-1190.37"
       y1="-532.566"
       x1="-1230.731"
       id="n">
      <stop
         id="stop1153"
         stop-opacity="0"
         stop-color="#722291"
         offset=".805" />
      <stop
         id="stop1155"
         stop-opacity=".5"
         stop-color="#592acb"
         offset="1" />
    </linearGradient>
  </defs>
  <path
     id="path1160"
     fill="url(#a)"
     d="M71.944 15.7A39.47 39.47 0 0 0 41.588.009C32.3-.177 25.884 2.614 22.254 4.858 27.111 2.041 34.14.443 40.294.522c15.83.2 32.832 10.981 35.357 30.413 2.9 22.306-12.637 40.923-34.493 40.98-24.045.061-38.67-21.229-34.847-40.352a19.735 19.735 0 0 1 .413-2.787 37.815 37.815 0 0 1 4.193-14.018c-2.769 1.433-6.295 5.965-8.035 10.163A41.355 41.355 0 0 0 .284 45.1c.06.518.114 1.035.182 1.549A40.062 40.062 0 1 0 71.944 15.7zm-63.4 3.487z" />
  <path
     id="path1162"
     opacity=".67"
     fill="url(#b)"
     d="M71.944 15.7A39.47 39.47 0 0 0 41.588.009C32.3-.177 25.884 2.614 22.254 4.858 27.111 2.041 34.14.443 40.294.522c15.83.2 32.832 10.981 35.357 30.413 2.9 22.306-12.637 40.923-34.493 40.98-24.045.061-38.67-21.229-34.847-40.352a19.735 19.735 0 0 1 .413-2.787 37.815 37.815 0 0 1 4.193-14.018c-2.769 1.433-6.295 5.965-8.035 10.163A41.355 41.355 0 0 0 .284 45.1c.06.518.114 1.035.182 1.549A40.062 40.062 0 1 0 71.944 15.7zm-63.4 3.487z" />
  <path
     id="path1164"
     fill="url(#c)"
     d="M71.944 15.7A39.47 39.47 0 0 0 41.588.009C32.3-.177 25.884 2.614 22.254 4.858 27.111 2.041 34.14.443 40.294.522c15.83.2 32.832 10.981 35.357 30.413 2.9 22.306-12.637 40.923-34.493 40.98-24.045.061-38.67-21.229-34.847-40.352a19.735 19.735 0 0 1 .413-2.787 37.815 37.815 0 0 1 4.193-14.018c-2.769 1.433-6.295 5.965-8.035 10.163A41.355 41.355 0 0 0 .284 45.1c.06.518.114 1.035.182 1.549A40.062 40.062 0 1 0 71.944 15.7zm-63.4 3.487z" />
  <path
     id="path1166"
     fill="url(#d)"
     d="M71.944 15.7A39.47 39.47 0 0 0 41.588.009C32.3-.177 25.884 2.614 22.254 4.858 27.111 2.041 34.14.443 40.294.522c15.83.2 32.832 10.981 35.357 30.413 2.9 22.306-12.637 40.923-34.493 40.98-24.045.061-38.67-21.229-34.847-40.352a19.735 19.735 0 0 1 .413-2.787 37.815 37.815 0 0 1 4.193-14.018c-2.769 1.433-6.295 5.965-8.035 10.163A41.355 41.355 0 0 0 .284 45.1c.06.518.114 1.035.182 1.549A40.062 40.062 0 1 0 71.944 15.7zm-63.4 3.487z" />
  <path
     id="path1168"
     fill="url(#e)"
     d="M71.944 15.7A39.47 39.47 0 0 0 41.588.009C32.3-.177 25.884 2.614 22.254 4.858 27.111 2.041 34.14.443 40.294.522c15.83.2 32.832 10.981 35.357 30.413 2.9 22.306-12.637 40.923-34.493 40.98-24.045.061-38.67-21.229-34.847-40.352a19.735 19.735 0 0 1 .413-2.787 37.815 37.815 0 0 1 4.193-14.018c-2.769 1.433-6.295 5.965-8.035 10.163A41.355 41.355 0 0 0 .284 45.1c.06.518.114 1.035.182 1.549A40.062 40.062 0 1 0 71.944 15.7zm-63.4 3.487z" />
  <path
     id="path1170"
     fill="url(#f)"
     d="M75.651 30.935a41.01 41.01 0 0 1 .3 7.247q1.99-.3 3.987-.53A40.01 40.01 0 0 0 71.944 15.7 39.47 39.47 0 0 0 41.588.009C32.3-.177 25.884 2.614 22.254 4.858 27.111 2.041 34.14.443 40.294.522 56.124.724 73.126 11.5 75.651 30.935z" />
  <path
     id="path1172"
     fill="url(#g)"
     d="M76.625 29.826C74.374 9.518 56.263.39 40.294.522c-6.155.05-13.183 1.519-18.04 4.336a19.7 19.7 0 0 0-3.56 2.7c.129-.107.514-.424 1.152-.862l.063-.043.056-.038a26.655 26.655 0 0 1 7.692-3.572A43.5 43.5 0 0 1 40.84 1.5a33.254 33.254 0 0 1 31.25 31.993C72.457 46.7 61.648 57.23 49.188 57.84c-9.062.444-17.6-3.941-21.77-12.713a21.68 21.68 0 0 1-1.964-6.333c-1.976-13.35 6.989-24.735 15.21-27.554-4.435-3.874-15.548-3.611-23.819 2.474-5.956 4.382-9.82 11.049-11.1 19a32.945 32.945 0 0 0 2.34 18 35.3 35.3 0 0 0 30.089 21.443q1.489.114 2.984.113c26.462 0 37.942-20.087 35.467-42.444z" />
  <path
     id="path1174"
     fill="url(#h)"
     d="M76.625 29.826C74.374 9.518 56.263.39 40.294.522c-6.155.05-13.183 1.519-18.04 4.336a19.7 19.7 0 0 0-3.56 2.7c.129-.107.514-.424 1.152-.862l.063-.043.056-.038a26.655 26.655 0 0 1 7.692-3.572A43.5 43.5 0 0 1 40.84 1.5a33.254 33.254 0 0 1 31.25 31.993C72.457 46.7 61.648 57.23 49.188 57.84c-9.062.444-17.6-3.941-21.77-12.713a21.68 21.68 0 0 1-1.964-6.333c-1.976-13.35 6.989-24.735 15.21-27.554-4.435-3.874-15.548-3.611-23.819 2.474-5.956 4.382-9.82 11.049-11.1 19a32.945 32.945 0 0 0 2.34 18 35.3 35.3 0 0 0 30.089 21.443q1.489.114 2.984.113c26.462 0 37.942-20.087 35.467-42.444z" />
  <path
     id="path1176"
     fill="url(#i)"
     opacity=".53"
     style="mix-blend-mode:multiply"
     d="M76.625 29.826C74.374 9.518 56.263.39 40.294.522c-6.155.05-13.183 1.519-18.04 4.336a19.7 19.7 0 0 0-3.56 2.7c.129-.107.514-.424 1.152-.862l.063-.043.056-.038a26.655 26.655 0 0 1 7.692-3.572A43.5 43.5 0 0 1 40.84 1.5a33.254 33.254 0 0 1 31.25 31.993C72.457 46.7 61.648 57.23 49.188 57.84c-9.062.444-17.6-3.941-21.77-12.713a21.68 21.68 0 0 1-1.964-6.333c-1.976-13.35 6.989-24.735 15.21-27.554-4.435-3.874-15.548-3.611-23.819 2.474-5.956 4.382-9.82 11.049-11.1 19a32.945 32.945 0 0 0 2.34 18 35.3 35.3 0 0 0 30.089 21.443q1.489.114 2.984.113c26.462 0 37.942-20.087 35.467-42.444z" />
  <path
     id="path1178"
     fill="url(#j)"
     opacity=".53"
     style="mix-blend-mode:multiply"
     d="M76.625 29.826C74.374 9.518 56.263.39 40.294.522c-6.155.05-13.183 1.519-18.04 4.336a19.7 19.7 0 0 0-3.56 2.7c.129-.107.514-.424 1.152-.862l.063-.043.056-.038a26.655 26.655 0 0 1 7.692-3.572A43.5 43.5 0 0 1 40.84 1.5a33.254 33.254 0 0 1 31.25 31.993C72.457 46.7 61.648 57.23 49.188 57.84c-9.062.444-17.6-3.941-21.77-12.713a21.68 21.68 0 0 1-1.964-6.333c-1.976-13.35 6.989-24.735 15.21-27.554-4.435-3.874-15.548-3.611-23.819 2.474-5.956 4.382-9.82 11.049-11.1 19a32.945 32.945 0 0 0 2.34 18 35.3 35.3 0 0 0 30.089 21.443q1.489.114 2.984.113c26.462 0 37.942-20.087 35.467-42.444z" />
  <path
     id="path1180"
     fill="url(#k)"
     d="M49.188 57.84c17.1-1.04 24.42-15.2 24.879-25.245C74.783 16.9 65.472-.02 40.84 1.5a43.5 43.5 0 0 0-13.183 1.546 28.855 28.855 0 0 0-7.692 3.572l-.056.038-.063.043q-.574.4-1.123.842A33.482 33.482 0 0 1 39.7 3.605c14.142 1.856 27.072 12.857 27.072 27.373 0 11.169-8.631 19.7-18.738 19.087-15.015-.9-18.8-16.3-10.989-22.954-2.106-.453-6.064.435-8.82 4.555-2.473 3.7-2.333 9.41-.807 13.461a22.118 22.118 0 0 0 21.77 12.713z" />
  <path
     id="path1182"
     fill="url(#l)"
     d="M71.944 15.7a39.958 39.958 0 0 0-3.482-3.982 31.342 31.342 0 0 0-3.177-2.926 24.393 24.393 0 0 1 1.849 1.79 22.466 22.466 0 0 1 4.882 8.144c2.089 6.329 1.953 14.25-2.036 20.471a23.539 23.539 0 0 1-20.855 10.895c-.361 0-.725 0-1.091-.027-15.015-.9-18.8-16.3-10.988-22.954-2.107-.453-6.065.435-8.821 4.555-2.473 3.7-2.333 9.41-.807 13.461a21.679 21.679 0 0 1-1.963-6.333c-1.977-13.35 6.988-24.735 15.209-27.554-4.435-3.874-15.548-3.611-23.819 2.474a27.845 27.845 0 0 0-10.087 14.6 38.5 38.5 0 0 1 4.159-13.553c-2.769 1.433-6.295 5.965-8.035 10.163A41.355 41.355 0 0 0 .284 45.1c.06.518.114 1.035.182 1.549A40.062 40.062 0 1 0 71.944 15.7z" />
  <path
     id="path1184"
     fill="url(#m)"
     d="M72.016 18.726a22.458 22.458 0 0 0-4.882-8.144 30.224 30.224 0 0 0-9.094-6.493A40.518 40.518 0 0 0 49.1.92a39.834 39.834 0 0 0-16.565-.1c-5.683 1.2-10.68 3.659-13.841 6.733a32.1 32.1 0 0 1 8.031-3.2 33.565 33.565 0 0 1 31.173 8.1 27.01 27.01 0 0 1 4.329 5.3c4.895 7.959 4.432 17.965.615 23.866-2.835 4.384-8.907 8.5-14.572 8.452A23.629 23.629 0 0 0 69.98 39.2c3.989-6.224 4.125-14.145 2.036-20.474z" />
  <path
     id="path1186"
     fill="url(#n)"
     d="M72.016 18.726a22.458 22.458 0 0 0-4.882-8.144 30.224 30.224 0 0 0-9.094-6.493A40.518 40.518 0 0 0 49.1.92a39.834 39.834 0 0 0-16.565-.1c-5.683 1.2-10.68 3.659-13.841 6.733a32.1 32.1 0 0 1 8.031-3.2 33.565 33.565 0 0 1 31.173 8.1 27.01 27.01 0 0 1 4.329 5.3c4.895 7.959 4.432 17.965.615 23.866-2.835 4.384-8.907 8.5-14.572 8.452A23.629 23.629 0 0 0 69.98 39.2c3.989-6.224 4.125-14.145 2.036-20.474z" />
</svg>
